<?xml version="1.0" encoding="UTF-8"?>
<!DOCTYPE svg PUBLIC "-//W3C//DTD SVG 1.0//EN" "http://www.w3.org/TR/2001/REC-SVG-20010904/DTD/svg10.dtd">
<!-- Creator: CorelDRAW 2017 -->
<svg xmlns="http://www.w3.org/2000/svg" xml:space="preserve" width="600px" height="600px" version="1.0" shape-rendering="geometricPrecision" text-rendering="geometricPrecision" image-rendering="optimizeQuality" fill-rule="evenodd" clip-rule="evenodd"
viewBox="0 0 197.66 197.66"
 xmlns:xlink="http://www.w3.org/1999/xlink">
 <g id="Layer_x0020_1">
  <metadata id="CorelCorpID_0Corel-Layer"/>
  <g id="_1381168674592">
   <path fill="#08243F" d="M102.42 197.66l58.43 0c-2.73,-10.23 -4.88,-20.78 -8.22,-30.68 -2.36,-6.99 -2.85,-8.59 -9.42,-10.49 -5.37,-1.56 -11.89,-2.46 -17.82,-3.61 1.61,1.15 3.59,1.07 6.08,2.04 -1.17,2.48 -13.01,15.3 -13.94,17.21l7.96 2.65c-1.18,2.13 -9.31,9.05 -11.65,11.52l-11.42 11.36z"/>
   <path fill="#0B445C" d="M100.06 197.66l-23.08 -22.84 7.92 -2.81 -13.89 -17.09c2.32,-0.87 4.36,-0.97 5.9,-2.04 -5.5,1.19 -18.03,2.74 -22.7,5.76 -5.02,3.24 -11.13,36.25 -12.65,39.02l58.5 0z"/>
   <path fill="#FDFEFE" d="M188.41 58.52c0.64,-2.42 0.12,-0.82 1.19,-1.56l0.2 1.27c2.36,3.61 0.84,16.5 1.07,21.68l-0.07 1.71 -3.3 -0.11c0.46,-4.5 -1.12,-20.37 0.91,-22.99zm-27.26 10.15l0.05 3.91 4.72 0.08c-0.75,3.33 -4.93,5.35 -7.89,2.48 -2.72,-2.63 -0.52,-6.57 3.12,-6.47zm17.77 3.6c-1.37,0.75 -9.74,0.67 -11.09,0 0.63,-0.45 -0.98,-0.73 2.3,-0.78 1.05,-0.01 2.22,0.04 3.3,0.04 4.95,0 4.8,-0.53 5.49,0.74zm-16.47 -3.46c2.11,0.16 3.02,0.88 3.1,2.96l-3.22 -0.07 0.12 -2.89zm5.44 0.2c0.98,-0.77 0.11,-0.57 3.67,-0.58 4.07,-0.01 2.76,-0.18 4.05,0.58 -0.51,0.29 -0.2,0.31 -1.22,0.52l-2.83 0.03c-3.12,0 -2.59,0.25 -3.67,-0.55zm11.02 -6.1c-1.42,0.69 -9.64,0.63 -11.06,0 0.58,-0.46 -1.07,-0.77 2.27,-0.83 1.05,-0.02 2.24,0.04 3.31,0.04 5.25,0 4.85,-0.53 5.48,0.79zm-14.15 0c-1.46,-0.6 -1.52,-0.37 -1.76,-2.21l2.36 -0.11c0.31,1.45 0.15,1.25 -0.6,2.32zm-1.23 0.65c-4.38,1.14 -7.37,-0.88 -6.41,-5.14 2.74,0.74 1.96,0.9 2.77,2.95l2.91 0.56 0.73 1.63zm-1.88 -7.42c2.89,0.32 3.97,1.29 4.23,3.89 -2.32,0.08 -1.94,0.23 -3.26,-1.1 -1.11,-1.12 -0.97,-0.92 -0.97,-2.79zm-3.78 1.48c0.9,-1.14 1.06,-1.12 2.98,-1.54 0.63,3.57 -1.22,3.26 -2.98,1.54zm18.87 -0.45c-1.93,0.03 -7.68,0.18 -8.82,-0.37 0.56,-0.45 -1.21,-0.75 2.21,-0.78 1.07,-0.01 2.21,0.03 3.3,0.03 1.7,0 4.18,-0.29 5.44,0.34 -0.48,1.09 0.13,0.75 -2.13,0.78zm-15.11 -10.55l-0.05 6.22c-0.38,0.74 -5.97,6.13 -7.72,6.69 0,23.73 -1.67,20.52 5.59,20.48 3.26,-0.02 6.53,0 9.79,0 0,8.93 -2.25,7.32 10.71,7.32 3.01,0 6.84,-0.44 9.56,0.26 1.94,0.5 -0.46,0.68 3.16,-0.1 1.54,-0.34 3.37,-0.16 4.99,-0.16l0 -33.38 -13.51 0c-0.41,-1.55 -0.58,-1.3 -1.32,-2.39 -0.24,-0.35 -0.22,-0.24 -0.34,-0.58 -0.24,-0.69 -0.21,-2.91 -0.21,-4.36 -3.73,0 -1.77,-1.06 -4.3,-0.53 -4.92,1.03 -10.15,0.53 -16.35,0.53z"/>
   <path fill="#F7D0A3" d="M101.3 102.54c-0.03,0.04 -0.45,0.72 -0.52,0.81 0.73,0.81 0.48,1.56 0.47,4.34 -0.04,8.9 -0.45,31.29 0.12,37.25 4.14,0.14 8.19,-0.71 11.48,-2.24 6.23,-0.8 13.24,-10.83 15.1,-17.75 1.17,-4.36 0.71,-2.06 3.67,-4.53 7.14,-5.93 4.61,-14.44 1.27,-16.86 -0.88,0.93 -1.55,4.12 -2.39,6.1 -0.65,1.53 -2.08,4.35 -3.2,5.24 -1.75,-3.55 -0.71,-11.13 -7.92,-18.24l-3.58 3.84c-2.12,2.45 -10.66,7.72 -13.93,7.87 1.52,-2.04 3.58,-7.04 3.64,-10.04 -1.74,1.61 -2.1,3.12 -4.21,4.21z"/>
   <path fill="#A86A28" d="M71.38 103.04c0.98,1.74 1.23,8.05 5.59,12.1 10.98,-2.97 22.06,-11.1 23.81,-11.79 0.07,-0.09 0.49,-0.77 0.52,-0.81l-0.05 -27.83c-11.01,0 -25.02,6.2 -28.42,15.52 -1.64,4.45 -1.45,7.08 -1.45,12.81z"/>
   <path fill="#F8E5CC" d="M89.56 143.52c1.3,-0.2 8.41,1.37 11.81,1.42 -0.57,-5.96 -0.16,-28.35 -0.12,-37.25 0.01,-2.78 0.26,-3.53 -0.47,-4.34 -1.75,0.69 -12.83,8.82 -23.81,11.79 -4.36,-4.05 -4.61,-10.36 -5.59,-12.1 -4.92,0.78 -6.65,11.69 -0.83,16.78 3.39,2.96 2.63,0.79 3.72,4.88 1.2,4.49 2.87,7.9 5.69,11.32 5.07,6.13 8.66,5.95 9.6,7.5z"/>
   <path fill="#0B3652" d="M139.41 17.97c-1.42,1.46 -2.17,1.33 -4.95,1.84 -4.53,0.83 -14.62,2.31 -18.5,1.62 0.02,0.58 0.17,1.98 0.12,2.43l-0.19 0.82c-0.03,0.12 -0.14,0.44 -0.16,0.39 -0.02,-0.05 -0.11,0.26 -0.18,0.38 -2.42,0.55 -3.26,0.73 -5.89,0l-0.07 -3.66 -0.01 0.39c-2.02,-0.78 -13.37,-1.36 -19.56,-2.47 -4.53,-0.81 -3.07,-1 -4.66,-1.89 0,3.5 0,6.99 0,10.48 0,5.02 -1,8.28 2.3,8.58 4.38,0.4 40.05,-0.07 48.53,0.01 4.14,0.04 3.22,0.28 3.22,-7.77 0,-3.72 0,-7.43 0,-11.15z"/>
   <path fill="#955A25" d="M101.3 102.54c2.11,-1.09 2.47,-2.6 4.21,-4.21 -0.06,3 -2.12,8 -3.64,10.04 3.27,-0.15 11.81,-5.42 13.93,-7.87l3.58 -3.84c7.21,7.11 6.17,14.69 7.92,18.24 1.12,-0.89 2.55,-3.71 3.2,-5.24 0.84,-1.98 1.51,-5.17 2.39,-6.1 0.1,-3.74 1.47,-7.14 -0.46,-12.97 -1.82,-5.51 -5.23,-9.36 -10.87,-11.68 -3.43,-1.41 -15.02,-4.2 -20.31,-4.2l0.05 27.83z"/>
   <path fill="#FAFCFC" d="M14.06 44.04l15.67 -0.06 -0.06 13.42 -15.6 -0.03 -0.01 -13.33zm17.6 11.95c0.21,-1.93 -0.78,-1.39 2.42,-1.43 3.39,-0.05 2.62,0.29 2.95,1.02 -0.65,1.07 -0.01,0.81 -2.44,0.84l-2.93 -0.43zm-0.02 -11c0.96,-0.71 -1.43,-0.44 1.96,-0.66l4.73 0.01c2.35,0.06 1.85,0.28 2.31,0.65l-0.62 0.33c-1.63,0.36 -7.02,0.42 -8.38,-0.33zm18.77 -7.77c0.99,0.62 0.66,1.69 0.69,3.22l-39.27 0.01c0.02,-1.69 -0.06,-1.95 0.45,-3.25l-2.47 0.07 0.23 22.64 43.01 -0.1 -0.02 -22.49 -2.62 -0.1z"/>
   <path fill="#F4F9FC" d="M151.61 134.65l10.32 -0.09 0.06 3.82 -10.37 -0.07 -0.01 -3.66zm1.64 -5.18c0.1,-0.1 0.21,-0.25 0.27,-0.34 0.07,-0.08 0.18,-0.23 0.25,-0.32 1.17,-1.49 -0.2,-0.59 1.21,-0.96l0.03 3.99c-1.55,0.1 -1.47,-0.48 -2.07,-1.75 -0.6,1.18 0,1.04 -0.94,1.93 -0.73,-0.97 -0.54,-2.81 -0.3,-4.18 1.64,0.2 1.12,0.12 1.55,1.63zm10.84 -1.06c0.72,-0.14 2.87,-1.81 3.03,0.64 -1.19,-0.17 -0.86,-0.64 -1.82,-0.19 0.7,0.77 2.25,1.05 1.86,2.31 -0.45,1.47 -2.21,0.82 -3.07,0.13 1.55,-1.06 1.3,0.72 1.77,-0.35 0.04,-0.09 0.2,-0.02 0.29,-0.05 -0.4,-0.41 -0.24,-0.26 -0.8,-0.69 -1.48,-1.14 -0.96,-0.16 -1.26,-1.8zm-8.21 -0.62l3.68 0.03 0.73 1.88c0.33,-1.2 0.13,-1.18 1.17,-1.89l0.68 1.79 1.04 -1.77c0.8,0.92 0.06,2.53 -0.37,4.24 -1.61,-0.56 -1.02,-0.45 -1.62,-1.92 -0.87,1.94 0.27,1.24 -1.48,1.88l-0.86 -3.6 -2.21 0.43 1.36 1.1c0.07,-0.09 0.26,0.2 0.38,0.3 -2.24,0.15 -1.1,-0.26 -1.76,0.64l1.88 0.81c-1.16,0.51 -1.11,0.34 -2.8,0.29l0.18 -4.21zm-7.61 -0.18c1.23,2.15 0.39,9.24 0.39,12.24 0,2.17 -0.01,4.35 0,6.52 0.03,2.78 0.72,4.16 -1.79,5.02 1.69,0.62 28.22,0.44 29.54,0.01 2.92,-0.96 1.69,-2.17 1.68,-2.18 0.61,-1.83 0.55,-4.19 0.36,-6.14 -0.32,-3.21 -7.54,-7.18 -9.91,-9.96l0.22 -8.74c-4.03,0 -8.07,0 -12.1,0 -1.92,0 -4.28,-0.12 -6.12,-0.05 -3,0.11 -2.27,0.63 -2.27,3.28z"/>
   <path fill="#FDFEFE" d="M30.16 109.99l3.78 -0.96 -2.2 4.01c-0.54,0.24 -0.16,0.04 -0.71,0.47 -2.2,1.71 -4.53,4.37 -7.52,6.22l-2.35 -1.91c-1.76,1.3 -3.61,3.4 -5.23,4.55l-1.58 -1.1c-0.58,-0.48 -1.06,-0.84 -1.55,-1.37l7.68 -6.91c2.22,1 1.67,1.9 3.94,2.85 2.68,-2.29 5.86,-4.14 5.74,-5.85zm-24.02 14.5c4.87,-0.84 28.2,-0.46 34.18,-0.16l0.06 -17.1 -34.24 -0.12 0 17.38z"/>
   <path fill="#0B445C" d="M105.93 184.46l-4.45 13.2 0.94 0 11.42 -11.36c2.34,-2.47 10.47,-9.39 11.65,-11.52l-7.96 -2.65c0.93,-1.91 12.77,-14.73 13.94,-17.21 -2.49,-0.97 -4.47,-0.89 -6.08,-2.04 -2.73,-0.06 -2.58,-1.01 -5.08,-0.6 -6.32,4.97 -5.63,6.03 -8.52,14.69 -1.95,5.83 -4.18,11.51 -5.86,17.49z"/>
   <path fill="#08243F" d="M76.91 152.88c-1.54,1.07 -3.58,1.17 -5.9,2.04l13.89 17.09 -7.92 2.81 23.08 22.84 0.87 0 -4.5 -12.83 -8.83 -26.25c-1.46,-2.12 -0.49,-1.54 -2.6,-3.35 -1.27,-1.09 -2.46,-1.91 -3.37,-3.16 -1.87,0.13 -2.81,0.68 -4.72,0.81z"/>
   <path fill="#124D74" d="M115.64 19.1l-0.09 6.35c0.07,-0.12 0.16,-0.43 0.18,-0.38 0.02,0.05 0.13,-0.27 0.16,-0.39l0.19 -0.82c0.05,-0.45 -0.1,-1.85 -0.12,-2.43 3.88,0.69 13.97,-0.79 18.5,-1.62 2.78,-0.51 3.53,-0.38 4.95,-1.84 0,-0.21 0,-0.57 0.03,-0.67 0.21,-0.62 0.18,-0.49 0.41,-0.8 -0.63,-1.1 -0.45,-0.39 -0.45,-2.04 0.04,-2.69 0.63,-6.99 -0.45,-8.96 -2.24,-0.94 -13.76,-0.58 -17.24,-0.31l-3.27 0.08 -2.18 -0.17 -0.62 14z"/>
   <path fill="#124D74" d="M85.36 17.82c1.59,0.89 0.13,1.08 4.66,1.89 6.19,1.11 17.54,1.69 19.56,2.47l0.02 -2.99c-0.6,-0.92 -0.52,-11.75 -0.74,-14.09 -1.78,0 -1.25,0.2 -2.32,-0.41 -1.04,0.79 1.48,0.65 -1.6,0.58 -1.31,-0.03 -0.65,-0.18 -1.25,-0.58 -1.73,1.16 -13.65,0.41 -16.93,0.41 -1.78,2.32 -1.43,1.96 -1.4,5.69 0.01,2.35 0,4.69 0,7.03z"/>
   <path fill="#F4F5F6" d="M101.32 154.58l-0.7 0.04 -0.08 0.72c1.43,0.24 0.76,-0.01 1.64,0.78l2.82 4.09c-1.76,1.98 -2.06,1.6 -1.65,5.09l1.76 17.31c0.09,0.38 0.07,0.97 0.82,1.85 1.68,-5.98 3.91,-11.66 5.86,-17.49 2.89,-8.66 2.2,-9.72 8.52,-14.69 -0.94,-1.51 0.07,-0.47 -1.54,-1.33 -0.87,-0.46 -1.19,-0.48 -2.1,-1 -1.63,-0.91 -2.02,-1.27 -3.82,-1.84 -2.06,0.24 -9.21,5.11 -11.53,6.47z"/>
   <path fill="#0C2C3C" d="M12.28 37.2l38.13 0.02 2.62 0.1 0.02 22.49 -43.01 0.1 -0.23 -22.64 2.47 -0.07zm-4.74 24.39l47.6 0 0.02 3.35c1.25,-2.14 0.38,-22.87 -0.06,-27.31 -0.38,-3.81 -2.1,-1.5 -12.61,-2 -2.12,-0.1 -2.61,-0.5 -5.13,-0.43 -3.46,0.08 -4.06,0.43 -10.25,0.43l-15.85 -0.05c-2.75,-0.15 -1.52,-0.42 -3.72,0.87l0 25.14z"/>
   <path fill="#BB2C2B" d="M97.46 159.56c1.64,4.74 2.42,-1.41 0.95,12.45 -0.24,2.21 -0.43,4.45 -0.66,6.57 -0.17,1.67 -0.04,4.97 -1.32,6.25l4.5 12.83 0.55 0 4.45 -13.2c-0.75,-0.88 -0.73,-1.47 -0.82,-1.85l-1.76 -17.31c-0.41,-3.49 -0.11,-3.11 1.65,-5.09l-2.82 -4.09c-0.88,-0.79 -0.21,-0.54 -1.64,-0.78 -0.12,0.78 -0.03,0.47 -0.59,1.33 -0.24,0.37 -0.48,0.62 -0.75,0.99 -0.85,1.14 -0.77,1.4 -1.74,1.9z"/>
   <polygon fill="#A5DAEB" points="14.07,57.37 29.67,57.4 29.73,43.98 14.06,44.04 "/>
   <path fill="#FDFEFE" d="M25.25 65.59l12.58 0.02c2.86,0.35 5.93,0.15 8.85,0.15 1.57,0 3.12,0 4.69,0.02 2.4,0.02 2.67,0.35 3.79,-0.84l-0.02 -3.35 -47.6 0c0,5.21 0.46,4.18 6.52,4.17 3.67,-0.01 7.6,0.32 11.19,-0.17z"/>
   <path fill="#FAFCFC" d="M174.41 30.16c0.49,1.35 0.72,0.83 1.6,2.38l-3.87 -1.79c-2.41,-0.81 -3.54,0.08 -5.45,-0.82 1.81,-0.86 1.63,-0.26 3.49,-0.42 2.37,-0.21 2.2,-1.72 4.05,-0.47 2.45,-0.24 2.42,-1.03 3.95,-0.33l-3.77 1.45zm-0.92 7.04c10.82,-1.08 10.44,-14.01 -0.57,-14.59 -11.32,0.68 -11.01,14.5 0.57,14.59z"/>
   <path fill="#FDFEFE" d="M81.63 152.07c0.91,1.25 2.1,2.07 3.37,3.16 2.11,1.81 1.14,1.23 2.6,3.35 2.3,-0.45 2.97,2.85 7.08,4.95 1.76,-1.37 1.47,-1.62 2.19,-3.01l0.59 -0.96c0.97,-0.5 0.89,-0.76 1.74,-1.9 0.27,-0.37 0.51,-0.62 0.75,-0.99 0.56,-0.86 0.47,-0.55 0.59,-1.33l0.08 -0.72c-2.1,-2.36 -8.77,-4.87 -10.54,-7.03l-7.36 3.79c-0.88,0.52 -0.39,0.15 -1.09,0.69z"/>
   <path fill="#3A586D" d="M21.52 127.54c1.57,-0.3 1.04,-0.08 2.21,-0.13l1.03 -0.2c0.08,-0.04 0.37,-0.3 0.49,-0.38 1.09,0.79 0.37,-0.12 0.93,1.22 -0.43,1.1 -0.2,2.05 0.3,3.39 0.45,1.2 0.81,2.33 2.5,2.29 3.48,-0.09 0.66,-4.02 0.46,-6.09 2.65,0 5.3,-0.01 7.95,0.02 3.33,0.03 5.59,-0.44 3.23,-2.89l-34.48 0.1c-0.74,0.36 -1.62,0.68 -0.63,2.01 1.03,1.38 8.4,0.76 11.82,0.76 -0.22,0.4 -1.1,2.83 -1.26,3.46 -0.4,1.62 -0.4,2.79 1.66,2.68 2.67,-0.15 2.09,-4.22 3.79,-6.24z"/>
   <path fill="#F4F5F6" d="M87.6 158.58l8.83 26.25c1.28,-1.28 1.15,-4.58 1.32,-6.25 0.23,-2.12 0.42,-4.36 0.66,-6.57 1.47,-13.86 0.69,-7.71 -0.95,-12.45l-0.59 0.96c-0.72,1.39 -0.43,1.64 -2.19,3.01 -4.11,-2.1 -4.78,-5.4 -7.08,-4.95z"/>
   <path fill="#127BBC" d="M180.17 98.73c-0.69,1.07 0.02,0.47 -1.15,1.1 -1.25,1.03 -1.76,1.9 -2.33,3.38 0.93,-0.78 0.89,-1.17 2.33,-1.38 1.25,1.42 0.88,1.59 0.87,3.37 -0.49,-0.15 -1.2,-0.47 -1.26,-0.48l-1.48 0.12c1.27,0.4 1.44,1.03 3.41,1.51 -0.51,1.32 -0.18,2.35 -0.37,4.02 0.83,-0.42 3.58,-0.86 5.31,-0.97l1.97 4.8c2.59,-0.05 3.54,-1 5.22,-2.03l1.24 -1.22c4.85,-8.06 -0.85,-10.18 -2.79,-12.59l-1.27 0.35c0.41,0.71 0.39,0.78 0.75,1.75l0.9 2.13c-0.26,0.06 -0.59,-0.19 -1.89,0.48 -0.05,0.03 -0.16,0.11 -0.21,0.13l-1.49 0.42c0.74,3.33 2.22,3.03 2.63,3.26 -1.48,1.4 0.08,0.36 -0.82,2.07 -1.65,-0.43 -1.24,-0.76 -2.38,-1.22 -2.61,-1.06 -0.07,0.25 -3.22,-0.09 -1.23,-2.91 -2.65,-2.58 -2.49,-4.93 0.12,-1.81 0.22,-0.6 1.48,-2.35 0.83,-1.15 0.69,-1.64 1.61,-2.85 -2.37,0.16 -2.8,0.76 -4.57,1.22z"/>
   <path fill="#C9E9F4" d="M50.41 37.22l-38.13 -0.02c-0.51,1.3 -0.43,1.56 -0.45,3.25l39.27 -0.01c-0.03,-1.53 0.3,-2.6 -0.69,-3.22z"/>
   <path fill="#F89A26" d="M7.16 81.52c9.45,-2.81 12.79,9.37 4.78,11.73 -9.23,2.72 -13.85,-9.03 -4.78,-11.73zm4.1 14.36c0.57,-0.89 0.1,-0.62 1.87,-0.83 2.58,-1.13 3.23,-1.44 4.66,-3.64 1.26,-1.93 1.59,-3.92 0.77,-6.36 -3.29,-9.75 -20.5,-7.06 -18.38,4.23 0.88,4.72 5.82,6.6 11.08,6.6z"/>
   <path fill="#FDBC18" d="M10.16 85.3c0.06,2.82 5.95,2.34 -0.81,6.59l-0.74 0.48c-0.32,-2.06 -0.28,-0.92 -2.18,-1.87 0.78,-0.84 -1.43,-1.52 2.22,-0.72l0.39 -2.14c-1.6,-0.29 -1.14,-0.04 -2.22,-0.79 -0.39,-3.82 0.8,-2.41 3.05,-4.32l1.53 2.18c-0.07,0.02 -0.25,0.08 -0.32,0.11l-0.53 0.22c-0.08,0.05 -0.24,0.22 -0.39,0.26zm-3 -3.78c-9.07,2.7 -4.45,14.45 4.78,11.73 8.01,-2.36 4.67,-14.54 -4.78,-11.73z"/>
   <path fill="#3A586D" d="M6.14 106.7l34.48 0.17c0.46,-0.46 0.91,-0.59 0.76,-1.52 -0.16,-1.02 -0.64,-1.12 -1.69,-1.31l-12.15 0.02c-3.38,-0.06 -2.05,-0.43 -4.16,-1.66 -1.65,0.76 -1.34,-0.07 -1.86,1.63 -1.75,0 -14.12,-0.25 -15.2,0.18 -0.7,0.27 -0.95,0.55 -1.05,1.14 -0.32,1.81 0.26,1.11 0.87,1.35z"/>
   <path fill="#0B3652" d="M109.6 19.19c1.75,-0.46 4.02,-0.81 5.41,0.07l0.63 -0.16 0.62 -14 -7.4 0c0.22,2.34 0.14,13.17 0.74,14.09z"/>
   <path fill="#F5B573" d="M101.37 144.94c-0.55,1.77 -0.31,7.64 -0.05,9.64 2.32,-1.36 9.47,-6.23 11.53,-6.47l0 -5.41c-3.29,1.53 -7.34,2.38 -11.48,2.24z"/>
   <path fill="#14A5B2" d="M23.51 119.73c2.99,-1.85 5.32,-4.51 7.52,-6.22 0.55,-0.43 0.17,-0.23 0.71,-0.47l2.2 -4.01 -3.78 0.96c0.12,1.71 -3.06,3.56 -5.74,5.85 -2.27,-0.95 -1.72,-1.85 -3.94,-2.85l-7.68 6.91c0.49,0.53 0.97,0.89 1.55,1.37l1.58 1.1c1.62,-1.15 3.47,-3.25 5.23,-4.55l2.35 1.91z"/>
   <path fill="#FDD9B5" d="M90.08 147.59c1.77,2.16 8.44,4.67 10.54,7.03l0.7 -0.04c-0.26,-2 -0.5,-7.87 0.05,-9.64 -3.4,-0.05 -10.51,-1.62 -11.81,-1.42 0.73,1.66 0.41,2.21 0.52,4.07z"/>
   <path fill="#18B0BE" d="M146.87 151.39c2.51,-0.86 1.82,-2.24 1.79,-5.02 -0.01,-2.17 0,-4.35 0,-6.52 0,-3 0.84,-10.09 -0.39,-12.24l-2.8 0.03 0 23.2 1.4 0.55z"/>
   <path fill="#18B0BE" d="M191.14 98.36c-0.73,-1.19 -0.65,-0.85 -2.76,-0.89 -1.15,-0.02 -2.46,0.04 -3.64,0.04 -0.92,1.21 -0.78,1.7 -1.61,2.85 -1.26,1.75 -1.36,0.54 -1.48,2.35 -0.16,2.35 1.26,2.02 2.49,4.93 3.15,0.34 0.61,-0.97 3.22,0.09 1.14,0.46 0.73,0.79 2.38,1.22 0.9,-1.71 -0.66,-0.67 0.82,-2.07 -0.41,-0.23 -1.89,0.07 -2.63,-3.26l1.49 -0.42c0.05,-0.02 0.16,-0.1 0.21,-0.13 1.3,-0.67 1.63,-0.42 1.89,-0.48l-0.9 -2.13c-0.36,-0.97 -0.34,-1.04 -0.75,-1.75l1.27 -0.35z"/>
   <path fill="#2B5972" d="M176.23 98.19c-1.12,1.78 -2.2,2.37 -2.93,4.91 -0.55,1.91 -0.52,4.53 0.27,6.5 1.47,3.62 4.64,6.21 9.18,7.21l1.64 0.2 -0.24 2.08c0.44,-0.49 0.45,-0.19 0.83,-1.15 0.14,-0.36 0.09,-0.56 0.1,-0.93l2.33 -0.05c3.14,0.04 5.49,-1.5 7.37,-2.76 0.1,-1.21 -0.22,-1.02 -1.31,-1.54 -2.57,1.48 -3.4,2.71 -7.47,2.79 -7.84,0.16 -12.9,-7.16 -10.07,-13.32 0.74,-1.63 1.33,-1.85 2.11,-2.99 -0.52,-0.77 -0.47,-1.3 -1.81,-0.95z"/>
   <path fill="#E6E8E8" d="M59.26 15.68l0 0zm-6.27 -4.18c1.06,-1.22 -0.69,-0.55 2.06,-0.97l6.49 0.12c-0.76,0.96 -2.9,3.56 -4.51,4.1 0.59,1.49 0.38,3.24 -0.03,4.73 1.06,0.44 3.99,4.41 4.73,5.47l1.15 -0.31c0.25,-2.39 0.51,-2.7 -0.9,-4 -1.18,-1.1 -2.23,-1.34 -2.72,-2.92 3.09,-0.63 3.7,-2.79 0,-2.04 0.94,-1.21 1.79,-1.64 2.94,-2.73 1.68,-1.6 1.08,-1.66 0.72,-3.78 -1.05,-0.69 -4.38,-0.43 -5.98,-0.49 0.59,1.37 0.63,0.16 0.26,1.31l-4.93 0c0.01,3.28 -0.13,0.37 0.72,1.51z"/>
   <path fill="#10303F" d="M172.92 22.61c11.01,0.58 11.39,13.51 0.57,14.59 -0.79,1.05 -0.37,0.01 -0.72,1.69 14.37,0 13.95,-17.92 0.15,-17.92l0 1.64z"/>
   <path fill="#D1ECFA" d="M178.09 149.22c1.01,-0.37 1.06,0.9 0.95,-3.66 -0.08,-3.27 0.58,-11.02 -0.48,-12.44l-10.02 0c2.37,2.78 9.59,6.75 9.91,9.96 0.19,1.95 0.25,4.31 -0.36,6.14z"/>
   <path fill="#2B5972" d="M172.77 38.89c0.35,-1.68 -0.07,-0.64 0.72,-1.69 -11.58,-0.09 -11.89,-13.91 -0.57,-14.59l0 -1.64c-5.82,0 -10.25,3.75 -10.25,8.96 0,5.13 4.3,8.96 10.1,8.96z"/>
   <path fill="#FDFEFE" d="M51.34 24.84l1.32 -0.13c1.83,-1.64 2.95,-3.49 4.34,-5.23 0.41,-1.49 0.62,-3.24 0.03,-4.73 -1.14,-1.15 -2.24,-2.8 -4.04,-3.25 -0.85,-1.14 -0.71,1.77 -0.72,-1.51l4.93 0c0.37,-1.15 0.33,0.06 -0.26,-1.31 -0.77,-0.1 -1.91,-0.16 -2.81,-0.15 -0.6,0.01 -1.17,0.04 -1.74,0.17 -1.49,0.36 -0.01,-0.35 -0.98,0.47 -0.37,5.5 3.76,3.89 5.06,8.14 -0.44,0.26 -0.77,0.55 -1.06,0.7 -1.26,0.66 -0.35,0.17 -1.61,0.64l-2.92 1.51c0.16,1.71 0.46,2.36 0.46,4.68z"/>
   <path fill="#18B1BF" d="M168.54 133.12l10.02 0 -2.33 -2.36c-0.75,-0.4 -1.48,-0.44 -1.17,-1.49 -2.61,-1.16 -3.91,-3.51 -6.3,-4.89l-0.22 8.74z"/>
   <path fill="#A8B8C2" d="M6.14 124.49l0 0.38 34.48 -0.1 0 -17.9 -34.48 -0.17 0 0.41 34.24 0.12 -0.06 17.1c-5.98,-0.3 -29.31,-0.68 -34.18,0.16z"/>
   <path fill="#969798" d="M24.31 69.01c2.55,-0.39 12.03,-0.47 14.45,0 -0.37,-1.06 -0.67,-2.25 -0.93,-3.4l-12.58 -0.02c-0.48,1.07 -0.7,2.13 -0.94,3.42z"/>
   <path fill="#17AABD" d="M176.69 103.21c-1.01,1.98 -0.83,6 1.4,7.57 2.1,0.46 1.65,0.29 3.73,0.01 0.74,0.46 1.65,0.81 2.73,1.45 1.4,0.83 0.65,1.25 2.39,1.56l0.53 0.4 -1.97 -4.8c-1.73,0.11 -4.48,0.55 -5.31,0.97 0.19,-1.67 -0.14,-2.7 0.37,-4.02 -1.97,-0.48 -2.14,-1.11 -3.41,-1.51l1.48 -0.12c0.06,0.01 0.77,0.33 1.26,0.48 0.01,-1.78 0.38,-1.95 -0.87,-3.37 -1.44,0.21 -1.4,0.6 -2.33,1.38z"/>
   <path fill="#FDB12A" d="M188.41 58.52c-2.03,2.62 -0.45,18.49 -0.91,22.99 -0.3,-2.35 0.22,-1.25 1.05,-1.54 -0.06,-1.17 -0.43,-19.07 0.26,-20.48 1.41,0.53 1.13,-0.32 1.29,2.15l-0.14 18.43 0.91 -0.16c-0.23,-5.18 1.29,-18.07 -1.07,-21.68l-1.39 0.29z"/>
   <path fill="#2B5972" d="M161.15 68.67c-3.64,-0.1 -5.84,3.84 -3.12,6.47 2.96,2.87 7.14,0.85 7.89,-2.48l-4.72 -0.08 -0.05 -3.91z"/>
   <polygon fill="#A6DBEB" points="151.62,138.31 161.99,138.38 161.93,134.56 151.61,134.65 "/>
   <path fill="#10486C" d="M104.52 3.47l0.29 -1c1.97,0.89 0.53,-0.05 1.52,1.62l0 -1.03c2.09,-0.42 3.84,-0.86 6.53,-0.84 3.14,0.02 3.86,0.79 6.48,0.84 0.5,-0.73 -0.82,-0.59 0.97,-0.56l0.33 0.97 0.53 -0.44c0.45,-0.53 0.26,-0.3 0.54,-0.78 -0.74,-0.68 -0.42,-0.52 -1.67,-0.99 -5.45,-2.03 -14.38,-1.55 -16.51,0.99 0.34,1.22 -0.06,0.6 0.99,1.22z"/>
   <path fill="#0D3C5C" d="M62.88 24.64l-1.15 0.31c-2.73,0.03 -6.92,0.51 -9.07,-0.24l-1.32 0.13 -1.86 -0.24 0 2.48 15.38 0 0 -2.44 -1.98 0z"/>
   <path fill="#FAE1B1" d="M188.55 79.97l1.41 0.1 0.14 -18.43c-0.16,-2.47 0.12,-1.62 -1.29,-2.15 -0.69,1.41 -0.32,19.31 -0.26,20.48z"/>
   <path fill="#FAA423" d="M10.16 85.3c0.15,-0.04 0.31,-0.21 0.39,-0.26l0.53 -0.22c0.07,-0.03 0.25,-0.09 0.32,-0.11l-1.53 -2.18c-2.25,1.91 -3.44,0.5 -3.05,4.32 1.08,0.75 0.62,0.5 2.22,0.79l-0.39 2.14c-3.65,-0.8 -1.44,-0.12 -2.22,0.72 1.9,0.95 1.86,-0.19 2.18,1.87l0.74 -0.48c6.76,-4.25 0.87,-3.77 0.81,-6.59z"/>
   <path fill="#0B4765" d="M51.41 9.17c0.97,-0.82 -0.51,-0.11 0.98,-0.47 0.57,-0.13 1.14,-0.16 1.74,-0.17 0.9,-0.01 2.04,0.05 2.81,0.15 1.6,0.06 4.93,-0.2 5.98,0.49 1.86,-0.61 0.18,0.23 1.94,-0.41l0 -2.03 -15.38 0c0,2.68 -0.19,1.62 1.93,2.44z"/>
   <path fill="#D1ECFA" d="M153.86 59.53c1.75,-0.56 7.34,-5.95 7.72,-6.69l-7.25 0.21c-0.62,0.97 -0.24,-0.04 -0.45,1.32 -0.05,0.38 -0.05,1.2 -0.05,1.6 0.01,1.19 0.03,2.37 0.03,3.56z"/>
   <path fill="#FCC418" d="M52.66 24.71c2.15,0.75 6.34,0.27 9.07,0.24 -0.74,-1.06 -3.67,-5.03 -4.73,-5.47 -1.39,1.74 -2.51,3.59 -4.34,5.23z"/>
   <path fill="#2B5972" d="M187.41 119.1l-3.4 -0.14 -2.19 0.12c-1.95,0.16 -2.17,0.34 -2.33,2.04 3.49,0 10.58,0.63 13.05,-0.4 -0.69,-2.24 -1.98,-1.65 -5.13,-1.62z"/>
   <path fill="#C9E9F4" d="M109.59 21.79l0.07 3.66c2.63,0.73 3.47,0.55 5.89,0l0.09 -6.35 -0.63 0.16 -0.29 2.54 -5.13 -0.01z"/>
   <path fill="#F2F3F3" d="M38.76 69.01c-2.42,-0.47 -11.9,-0.39 -14.45,0l-1.36 -0.49 -0.03 1.72 17.24 0c-0.05,-0.51 0.2,-0.64 -0.22,-1.04 -0.96,-0.92 0.08,-0.43 -1.18,-0.19z"/>
   <path fill="#466479" d="M21.52 127.54c0,5.52 -0.8,5.98 2.33,6.61l1.4 -2.43c0.31,-4.53 -0.63,-2.77 0.93,-3.67 -0.56,-1.34 0.16,-0.43 -0.93,-1.22 -0.12,0.08 -0.41,0.34 -0.49,0.38l-1.03 0.2c-1.17,0.05 -0.64,-0.17 -2.21,0.13z"/>
   <polygon fill="#18B1BF" points="154.33,53.05 161.58,52.84 161.63,46.62 "/>
   <path fill="#18B2BF" d="M155.7 132c1.69,0.05 1.64,0.22 2.8,-0.29l-1.88 -0.81c0.66,-0.9 -0.48,-0.49 1.76,-0.64 -0.12,-0.1 -0.31,-0.39 -0.38,-0.3l-1.36 -1.1 2.21 -0.43 0.86 3.6c1.75,-0.64 0.61,0.06 1.48,-1.88 0.6,1.47 0.01,1.36 1.62,1.92 0.43,-1.71 1.17,-3.32 0.37,-4.24l-1.04 1.77 -0.68 -1.79c-1.04,0.71 -0.84,0.69 -1.17,1.89l-0.73 -1.88 -3.68 -0.03 -0.18 4.21z"/>
   <path fill="#FCC418" d="M57.03 14.75c1.61,-0.54 3.75,-3.14 4.51,-4.1l-6.49 -0.12c-2.75,0.42 -1,-0.25 -2.06,0.97 1.8,0.45 2.9,2.1 4.04,3.25z"/>
   <path fill="#2B5972" d="M163.53 63.56l-0.73 -1.63 -2.91 -0.56c-0.81,-2.05 -0.03,-2.21 -2.77,-2.95 -0.96,4.26 2.03,6.28 6.41,5.14z"/>
   <path fill="#1175BC" d="M186.94 113.8c-1.74,-0.31 -0.99,-0.73 -2.39,-1.56 -1.08,-0.64 -1.99,-0.99 -2.73,-1.45 -2.08,0.28 -1.63,0.45 -3.73,-0.01 1.68,2.78 6.42,3.97 7.5,3.82 1.6,-0.23 0.52,0.3 1.35,-0.8z"/>
   <path fill="#F4F9FC" d="M109.6 19.19l-0.02 2.99 0.01 -0.39 5.13 0.01 0.29 -2.54c-1.39,-0.88 -3.66,-0.53 -5.41,-0.07z"/>
   <path fill="#B2DEEB" d="M167.85 62.91c1.42,0.63 9.64,0.69 11.06,0 -0.63,-1.32 -0.23,-0.79 -5.48,-0.79 -1.07,0 -2.26,-0.06 -3.31,-0.04 -3.34,0.06 -1.69,0.37 -2.27,0.83z"/>
   <path fill="#B2DEEB" d="M167.83 72.27c1.35,0.67 9.72,0.75 11.09,0 -0.69,-1.27 -0.54,-0.74 -5.49,-0.74 -1.08,0 -2.25,-0.05 -3.3,-0.04 -3.28,0.05 -1.67,0.33 -2.3,0.78z"/>
   <path fill="#1AB6C4" d="M167.92 56.8c1.14,0.55 6.89,0.4 8.82,0.37 2.26,-0.03 1.65,0.31 2.13,-0.78 -1.26,-0.63 -3.74,-0.34 -5.44,-0.34 -1.09,0 -2.23,-0.04 -3.3,-0.03 -3.42,0.03 -1.65,0.33 -2.21,0.78z"/>
   <path fill="#18B1BF" d="M152 132.02c0.94,-0.89 0.34,-0.75 0.94,-1.93 0.6,1.27 0.52,1.85 2.07,1.75l-0.03 -3.99c-1.41,0.37 -0.04,-0.53 -1.21,0.96 -0.07,0.09 -0.18,0.24 -0.25,0.32 -0.06,0.09 -0.17,0.24 -0.27,0.34 -0.43,-1.51 0.09,-1.43 -1.55,-1.63 -0.24,1.37 -0.43,3.21 0.3,4.18z"/>
   <path fill="#F89A26" d="M165.88 60.03c-0.26,-2.6 -1.34,-3.57 -4.23,-3.89 0,1.87 -0.14,1.67 0.97,2.79 1.32,1.33 0.94,1.18 3.26,1.1z"/>
   <path fill="#E56222" d="M31.64 44.99c1.36,0.75 6.75,0.69 8.38,0.33l0.62 -0.33c-0.46,-0.37 0.04,-0.59 -2.31,-0.65l-4.73 -0.01c-3.39,0.22 -1,-0.05 -1.96,0.66z"/>
   <path fill="#FDFEFE" d="M145.47 19.35c0.94,0.19 4.2,2.31 4.2,0.4 0,-1.04 -0.36,-0.92 -1.22,-1.38 -0.89,-0.48 -1.26,-0.6 -2.05,-1.06 -0.99,1.3 -0.76,0.29 -0.93,2.04z"/>
   <path fill="#FAFCFC" d="M14.53 70.24c0.14,-1.49 0.44,-1.29 0.71,-2.71 0.28,-1.51 -0.3,-1.33 -2.11,-1.37 -0.07,2.69 -1.92,3.4 1.4,4.08z"/>
   <path fill="#FAFCFC" d="M173.43 40.92c0,0.8 1.73,2.47 2.33,2.85 0.63,-0.31 0.52,-0.22 1.4,-0.4 -0.14,-1.51 0.08,-0.74 -0.71,-1.83 -1.95,-2.69 -3.02,-0.91 -3.02,-0.62z"/>
   <path fill="#18B0BE" d="M164.09 128.41c0.3,1.64 -0.22,0.66 1.26,1.8 0.56,0.43 0.4,0.28 0.8,0.69 -0.09,0.03 -0.25,-0.04 -0.29,0.05 -0.47,1.07 -0.22,-0.71 -1.77,0.35 0.86,0.69 2.62,1.34 3.07,-0.13 0.39,-1.26 -1.16,-1.54 -1.86,-2.31 0.96,-0.45 0.63,0.02 1.82,0.19 -0.16,-2.45 -2.31,-0.78 -3.03,-0.64z"/>
   <path fill="#FDFEFE" d="M44.35 24.64l1 1.17c4.49,-1.96 3.14,-2.89 2.73,-3.61 -1.43,0.33 -2.93,1.39 -3.73,2.44z"/>
   <path fill="#FDFEFE" d="M47.54 150.37c1.51,0.73 2.5,1.34 3.8,2.1l1 -1.17c-0.84,-1.05 -0.37,-0.58 -1.45,-1.28 -0.71,-0.46 -1.15,-0.79 -1.88,-1.21l-1.47 1.56z"/>
   <path fill="#FDFEFE" d="M71.38 11.2l0.52 1.62c1.93,-0.13 2.15,-0.66 4.14,-0.8 -0.3,-3.17 -1.71,-1.42 -4.66,-0.82z"/>
   <path fill="#FDFEFE" d="M78.84 9.17c0.1,1.1 0.21,1.11 0.46,2.03 1.33,-0.55 0.76,-0.17 2.22,-0.5 0.88,-0.2 1.17,-0.34 1.98,-0.72l-0.96 -1.61c-0.86,0.36 -2.46,0.71 -3.7,0.8z"/>
   <path fill="#FDFEFE" d="M38.76 28.71c0,2.23 2.36,1.18 4.19,-1.22l-1.02 -0.73c-0.98,0.13 -3.17,1.02 -3.17,1.95z"/>
   <path fill="#FDFEFE" d="M11.19 75.92c-0.07,0.8 1.13,0.77 1.94,0.83l0.55 -3.25c0.07,-0.79 -1.14,-0.76 -1.95,-0.82l-0.54 3.24z"/>
   <path fill="#10303F" d="M176.23 98.19c1.34,-0.35 1.29,0.18 1.81,0.95l0.98 0.69c1.17,-0.63 0.46,-0.03 1.15,-1.1 -1.63,-0.73 -2.08,-1.1 -2.55,-2.85 -2.66,0.2 -2.44,0.93 -1.39,2.31z"/>
   <path fill="#FDFEFE" d="M12.67 103.62c0.85,-0.37 0.58,-0.31 1.86,-0.41 -0.1,-1.01 -0.53,-2.94 -0.93,-3.66l-1.87 0c0.13,1.29 0.62,2.88 0.94,4.07z"/>
   <path fill="#18B2BF" d="M167.89 69.01c1.08,0.8 0.55,0.55 3.67,0.55l2.83 -0.03c1.02,-0.21 0.71,-0.23 1.22,-0.52 -1.29,-0.76 0.02,-0.59 -4.05,-0.58 -3.56,0.01 -2.69,-0.19 -3.67,0.58z"/>
   <path fill="#0C2C3C" d="M192.69 112.17l0.78 0.49c1.09,0.52 1.41,0.33 1.31,1.54 0.92,0.62 0.68,0.56 1.95,0.82 0.59,-1.08 0.43,-0.44 0.47,-2.04 -2.12,-0.88 -1.84,-0.18 -3.27,-2.03l-1.24 1.22z"/>
   <path fill="#FDFEFE" d="M42.02 146.77c1.76,0.41 1.36,0.79 2.8,1.63l1.5 -1.13c-0.57,-0.64 -2.66,-2.12 -3.37,-2.53 -0.99,1.3 -0.76,0.28 -0.93,2.03z"/>
   <path fill="#FDFEFE" d="M158.05 27.08c1.76,0.41 1.36,0.79 2.8,1.63l1.5 -1.13c-0.57,-0.64 -2.66,-2.12 -3.36,-2.53 -1,1.3 -0.77,0.28 -0.94,2.03z"/>
   <path fill="#F49817" d="M162.33 71.7l3.22 0.07c-0.08,-2.08 -0.99,-2.8 -3.1,-2.96l-0.12 2.89z"/>
   <path fill="#FDFEFE" d="M152 22.2c1.33,1.74 2.46,2.48 4.19,1.62 -0.44,-1.45 -2.09,-2.46 -3.73,-2.85 -0.22,0.74 -0.07,0.73 -0.46,1.23z"/>
   <path fill="#FDFEFE" d="M33.17 34l1.34 0.88 2.96 -2.41 -1.41 -1.4c-1.24,0.75 -0.7,0.36 -1.51,1.29 -0.5,0.58 -0.92,1.04 -1.38,1.64z"/>
   <path fill="#FDFEFE" d="M36.02 141.13c0.85,1.13 2.08,2.42 3.67,2.79 0.3,-1.1 1.16,-1.62 -2.33,-3.66l-1.34 0.87z"/>
   <path fill="#FDFEFE" d="M64.39 15.28c1.21,-0.09 4.19,-0.73 4.19,-1.63 0,-1.62 -1.08,-1.12 -2.19,-0.74 -1.63,0.56 -1.95,0.48 -2,2.37z"/>
   <path fill="#FAFCFC" d="M30.89 136.25l2.74 2.79c0.63,-0.31 0.52,-0.22 1.4,-0.41 -0.17,-1.78 -1.49,-2.5 -2.79,-3.26l-1.35 0.88z"/>
   <path fill="#274455" d="M172.14 30.75l2.09 -1.71c-1.85,-1.25 -1.68,0.26 -4.05,0.47 -1.86,0.16 -1.68,-0.44 -3.49,0.42 1.91,0.9 3.04,0.01 5.45,0.82z"/>
   <path fill="#FDFEFE" d="M177.62 126.01c1.24,0.29 0.39,-0.03 1.4,0.41 0.73,-0.47 1.2,-0.99 1.73,-1.79 1.22,-1.86 -0.37,-3.12 -2.06,-0.54 -0.59,0.9 -0.75,0.9 -1.07,1.92z"/>
   <path fill="#FDFEFE" d="M189.74 93.03c0,1.67 -1.53,1.57 1.86,1.63l0 -1.22c0,-1.93 1.63,-2.37 -1.86,-2.44l0 2.03z"/>
   <path fill="#FAFCFC" d="M139.85 16.5c1.06,0.47 1.29,0.7 2.83,0.81l0.52 -1.61c-1.85,-0.38 -2,-0.88 -3.8,-1.24 0,1.65 -0.18,0.94 0.45,2.04z"/>
   <path fill="#E56222" d="M32.51 55.58c0.38,-0.2 0.72,-0.57 2.05,-0.51 2.53,0.11 0.89,0.18 1.46,0.51 -0.71,0.33 -0.39,0.47 -1.91,0.42 -1.52,-0.05 -1.27,-0.29 -1.6,-0.42zm1.57 -1.02c-3.2,0.04 -2.21,-0.5 -2.42,1.43l2.93 0.43c2.43,-0.03 1.79,0.23 2.44,-0.84 -0.33,-0.73 0.44,-1.07 -2.95,-1.02z"/>
   <path fill="#18B0BE" d="M157.87 57.62c1.76,1.72 3.61,2.03 2.98,-1.54 -1.92,0.42 -2.08,0.4 -2.98,1.54z"/>
   <path fill="#E06150" d="M187.5 81.51l3.3 0.11 0.07 -1.71 -0.91 0.16 -1.41 -0.1c-0.83,0.29 -1.35,-0.81 -1.05,1.54z"/>
   <path fill="#10303F" d="M184.15 119.09l-0.14 -0.13 3.4 0.14 0 -2.14 -2.33 0.05c-0.01,0.37 0.04,0.57 -0.1,0.93 -0.38,0.96 -0.39,0.66 -0.83,1.15z"/>
   <path fill="#AAB3B7" d="M118.44 5.27l3.27 -0.08c-0.6,-0.89 -0.56,-0.64 -1.07,-1.72l-0.33 -0.97c-1.79,-0.03 -0.47,-0.17 -0.97,0.56 -0.22,1 -0.48,1.35 -0.9,2.21z"/>
   <path fill="#B8B8B7" d="M104.52 3.47c-0.36,1.22 0.23,0.35 -0.83,1.22 0.6,0.4 -0.06,0.55 1.25,0.58 3.08,0.07 0.56,0.21 1.6,-0.58l-0.21 -0.6c-0.99,-1.67 0.45,-0.73 -1.52,-1.62l-0.29 1z"/>
   <path fill="#F5B573" d="M174.23 29.04l-2.09 1.71c1.15,-0.04 1.66,-0.31 2.27,-0.59l3.77 -1.45c-1.53,-0.7 -1.5,0.09 -3.95,0.33z"/>
   <path fill="#FAFCFC" d="M181.82 119.08l2.19 -0.12 0.14 0.13 0.24 -2.08 -1.64 -0.2c-0.52,0.73 -0.67,1.3 -0.93,2.27z"/>
   <path fill="#AADDED" d="M163 60.7c0.24,1.84 0.3,1.61 1.76,2.21 0.75,-1.07 0.91,-0.87 0.6,-2.32l-2.36 0.11z"/>
   <path fill="#FDFEFE" d="M175.06 129.27c-0.31,1.05 0.42,1.09 1.17,1.49 0.52,-0.53 1.33,-0.79 0.75,-1.76 -0.9,-1.53 -1.6,-0.23 -1.92,0.27z"/>
   <path fill="#0C2C3C" d="M172.14 30.75l3.87 1.79c-0.88,-1.55 -1.11,-1.03 -1.6,-2.38 -0.61,0.28 -1.12,0.55 -2.27,0.59z"/>
   <path fill="#F5F6F6" d="M11.26 95.88c0.51,1.08 -0.95,0.76 1.87,0.82l0 -1.65c-1.77,0.21 -1.3,-0.06 -1.87,0.83z"/>
   <path fill="#F8E5CD" d="M32.51 55.58c0.33,0.13 0.08,0.37 1.6,0.42 1.52,0.05 1.2,-0.09 1.91,-0.42 -0.57,-0.33 1.07,-0.4 -1.46,-0.51 -1.33,-0.06 -1.67,0.31 -2.05,0.51z"/>
   <path fill="#2A4D63" d="M188.41 58.52l1.39 -0.29 -0.2 -1.27c-1.07,0.74 -0.55,-0.86 -1.19,1.56z"/>
  </g>
 </g>
</svg>
